<svg width="222" height="222" viewBox="0 0 222 222" fill="none" xmlns="http://www.w3.org/2000/svg">
<g id="a">
<g clip-path="url(#clip0_188_727)">
<g id="Group">
<path id="Vector" d="M178.113 36.9355L179.861 34.7087C182.611 37.1922 185.211 39.8143 187.664 42.5597L167.55 59.3337L172.839 65.6745L192.911 48.9346C195.14 51.8757 197.216 54.9371 199.126 58.1184L196.571 59.5311L200.57 66.7583L210.39 61.3244L208.415 57.719C201.663 45.395 192.753 34.5801 181.93 25.576L178.664 22.8599L171.617 31.8358L178.113 36.9355Z" fill="#CEE8F4"/>
<path id="Vector_2" d="M75.8951 42.6599L75.9432 42.7533L76.7626 42.338L76.735 42.2828L79.0211 41.2566C87.3973 37.4069 96.3156 35.1272 105.525 34.4811L109.654 34.191L107.176 0.013855L102.784 0.258795C88.8276 1.2785 75.3717 4.87507 62.7934 10.9504L59.067 12.7502L73.9996 43.5104L75.8951 42.6599ZM99.538 8.84345L100.827 26.6325C92.9322 27.5729 85.258 29.6099 77.9362 32.7107L70.1457 16.6622C79.5287 12.5839 89.3956 9.96242 99.5374 8.84404L99.538 8.84345Z" fill="#CEE8F4"/>
<path id="Vector_3" d="M119.581 8.60522L116.253 34.3504L120.373 34.8602C120.889 34.9243 121.402 34.9918 121.917 35.0658C130.555 36.2964 138.846 38.9725 146.571 43.0237C146.915 43.2035 147.767 43.6799 147.774 43.6834L151.461 45.7433L163.641 22.7448C164.534 23.2658 165.157 23.6341 165.159 23.6341C166.388 24.3983 167.603 25.1895 168.797 26.0054L173.45 19.1829C172.16 18.303 170.848 17.4477 169.438 16.5719C169.438 16.5719 166.343 14.7434 164.01 13.4353L160.322 11.3689L148.057 34.5243C140.908 31.0499 133.337 28.6169 125.495 27.2683L128.319 5.4345L128.648 1.28579L124.519 0.782399C122.666 0.556843 117.852 0.170342 117.235 0.138036C116.111 0.0745981 114.983 0.0293693 113.849 0L113.639 8.25631C114.689 8.28274 115.736 8.32562 116.781 8.3826C117.014 8.39552 118.216 8.48892 119.581 8.60522H119.581Z" fill="#CEE8F4"/>
</g>
<path id="Vector_4" d="M211.397 132.786L186.06 126.187L183.98 134.178L194.537 136.927C193.447 140.439 192.141 143.896 190.621 147.228L190.225 148.082L197.697 151.595L198.132 150.656C199.851 146.891 201.316 142.981 202.532 139.009L209.3 140.773C206.404 150.304 202.153 159.43 196.637 167.742L194.102 165.919L189.281 172.624L198.569 179.301L200.982 175.966C211.24 161.796 218.061 145.183 220.709 127.926L212.545 126.673C212.231 128.723 211.838 130.759 211.397 132.786V132.786Z" fill="#92BDE4"/>
<path id="Vector_5" d="M216.412 76.0978L215.114 72.1699L182.508 83.0219L183.804 86.9357C184.127 87.9078 184.817 90.1545 184.959 90.6808C186.838 97.5433 187.748 104.671 187.664 111.861C187.65 112.973 187.614 114.078 187.556 115.175L187.336 119.292L221.607 121.163L221.833 117.042C221.856 116.637 221.976 113.46 221.992 112.268C222.137 99.9028 220.258 87.7339 216.412 76.0978H216.412ZM213.734 112.167C213.732 112.254 213.732 112.355 213.73 112.463L195.926 111.491C195.976 103.688 194.965 95.955 192.927 88.5081C192.908 88.4423 192.887 88.3665 192.862 88.2796L209.792 82.646C212.527 92.2028 213.852 102.115 213.734 112.167Z" fill="#92BDE4"/>
<g id="Group_2">
<path id="Vector_6" d="M163.823 166.534C156.988 173.032 149.129 178.158 140.464 181.768L136.669 183.349L149.736 215.098L153.562 213.509C166.268 208.229 177.771 200.707 187.751 191.151L190.763 188.266L166.776 163.728L163.824 166.534H163.823ZM154.187 204.216L147.397 187.718C154.298 184.444 160.698 180.267 166.495 175.255L178.967 188.013C171.502 194.61 163.194 200.041 154.186 204.215L154.187 204.216Z" fill="#00A2FF"/>
<path id="Vector_7" d="M75.6966 178.732L71.1385 188.838C67.4373 186.941 63.8619 184.777 60.4739 182.372L55.6949 189.109C59.517 191.819 63.5594 194.244 67.7428 196.367L64.8493 202.783C55.9715 198.321 47.8357 192.619 40.5802 185.778L42.8957 183.567L37.1963 177.594L28.7667 185.636L31.6925 188.623C41.3673 198.506 52.6317 206.4 65.1724 212.089L68.9405 213.798L68.9645 213.744C71.139 214.635 73.3465 215.476 75.5621 216.221L78.1947 208.394C76.2382 207.736 74.2874 206.994 72.3614 206.213L83.2234 182.128L75.6966 178.732Z" fill="#00A2FF"/>
<path id="Vector_8" d="M27.1104 164.708L24.5306 166.472C22.5687 163.425 20.783 160.288 19.1642 157.075L35.379 149.639C36.5221 151.868 37.7556 154.054 39.1007 156.186L36.1426 158.253L40.8699 165.023L50.526 158.279L48.1541 154.892C42.6773 147.07 38.7577 138.421 36.5068 129.183L35.5388 125.206L24.1159 127.887L26.0008 135.925L29.5498 135.092C30.2535 137.475 31.0705 139.813 31.9775 142.114L15.7532 149.555C14.3999 146.216 13.2175 142.805 12.2213 139.325L15.3356 138.575L13.4025 130.546L2.16052 133.255L3.13852 137.275C6.36915 150.559 11.9781 163.002 19.8127 174.265L22.1663 178.094L31.7736 171.523L27.1104 164.707V164.708Z" fill="#00A2FF"/>
<path id="Vector_9" d="M137.983 210.125C135.943 210.679 133.862 211.15 131.773 211.58L127.441 185.566L119.296 186.922L121.115 197.845C117.201 198.295 113.241 198.495 109.294 198.415L109.132 206.67C109.985 206.687 110.837 206.693 111.69 206.686C115.296 206.661 118.902 206.423 122.473 205.997L123.629 212.937C118.794 213.529 113.893 213.782 108.996 213.684C104.042 213.587 99.0922 213.136 94.2316 212.339L94.9001 209.159L86.8176 207.46L84.4287 218.838L88.4876 219.675C95.1374 221.044 101.983 221.807 108.833 221.94C109.822 221.958 110.812 221.965 111.802 221.958C117.596 221.918 123.39 221.429 129.062 220.501L133.148 219.833L133.13 219.727C135.493 219.248 137.847 218.721 140.152 218.093L137.984 210.125H137.983Z" fill="#00A2FF"/>
<path id="Vector_10" d="M34.5102 114.318C34.4062 112.596 34.307 110.569 34.364 108.598C34.5924 101.062 35.9152 93.6436 38.2965 86.5503L39.6193 82.6107L28.3133 78.899L25.7388 86.7459L29.2437 87.896C27.3735 94.5364 26.3214 101.4 26.1118 108.353C26.0841 109.248 26.0853 110.137 26.1029 111.003L8.26459 111.969C8.26224 111.864 8.26165 111.766 8.26107 111.677C8.19117 101.623 9.56448 91.7134 12.3387 82.196L15.3285 83.2491L18.071 75.4592L7.09922 71.5966L5.76526 75.5673L5.71298 75.7241C1.83799 87.3033 -0.0827648 99.4176 0.00299364 111.733C0.0123918 113.123 0.143967 116.482 0.143967 116.482L0.308435 120.669L34.801 118.799L34.5102 114.317V114.318Z" fill="#00A2FF"/>
<path id="Vector_11" d="M42.3013 76.5694L44.3924 72.9387L44.4036 72.9452C49.2096 64.5462 55.4811 57.2091 63.0467 51.1338L66.2162 48.5892L59.1047 39.4436L52.5853 44.5145L54.7663 47.3152C48.7931 52.5911 43.6364 58.6365 39.3614 65.3456L35.114 62.8985C37.4143 59.2749 39.9653 55.7959 42.7319 52.5682L42.9145 52.3555C43.8103 51.317 44.729 50.2979 45.6706 49.2994L39.6634 43.6346C38.6384 44.7207 37.6369 45.8308 36.6865 46.9328L36.4962 47.1548C33.3677 50.8037 30.5154 54.7109 27.9567 58.7745L23.9061 56.4408C29.3071 47.8233 35.9047 40.1026 43.5942 33.4188L45.4062 35.6532L51.8182 30.4507L44.7789 21.7756L41.5777 24.346C31.726 32.2528 23.4021 41.6592 16.7605 52.3238L16.6865 52.2809L14.6559 55.8064C14.6483 55.8194 14.6401 55.8323 14.6324 55.8452H14.633L12.5654 59.4353L42.3013 76.5688V76.5694Z" fill="#00A2FF"/>
</g>
</g>
</g>
<defs>
<clipPath id="clip0_188_727">
<rect width="222" height="221.961" rx="108" fill="white"/>
</clipPath>
</defs>
</svg>
